<?xml version="1.0" encoding="iso-8859-1"?>
<!-- Generator: Adobe Illustrator 19.0.0, SVG Export Plug-In . SVG Version: 6.00 Build 0)  -->
<svg version="1.1" id="Layer_1" xmlns="http://www.w3.org/2000/svg" xmlns:xlink="http://www.w3.org/1999/xlink" x="0px" y="0px"
	 viewBox="0 0 360.188 360.188" style="enable-background:new 0 0 360.188 360.188;" xml:space="preserve">
<g id="XMLID_31_">
	<g id="XMLID_71_">
		<rect id="XMLID_36_" x="162.966" y="171.714" style="fill:#9FCBA5;" width="34.255" height="152.033"/>
		<g id="XMLID_85_">
			<path id="XMLID_86_" style="fill:#49B86E;" d="M244.601,93.784c2.941-7.674,4.569-15.999,4.569-24.707
				C249.169,30.927,218.243,0,180.093,0s-69.076,30.927-69.076,69.077c0,8.709,1.627,17.033,4.569,24.707
				c-35.551,2.831-63.524,32.556-63.524,68.835c0,38.15,30.927,69.077,69.076,69.077c24.956,0,46.817-13.237,58.956-33.07
				c12.139,19.833,34,33.07,58.956,33.07c38.15,0,69.076-30.927,69.076-69.077C308.125,126.34,280.152,96.614,244.601,93.784z"/>
		</g>
		<circle id="XMLID_87_" style="fill:#2B7B57;" cx="180.093" cy="63.38" r="20"/>
		<circle id="XMLID_88_" style="fill:#2B7B57;" cx="180.093" cy="135.848" r="20"/>
		<g id="XMLID_89_">
			<circle id="XMLID_90_" style="fill:#2B7B57;" cx="110.089" cy="165.849" r="20"/>
			<circle id="XMLID_91_" style="fill:#2B7B57;" cx="250.097" cy="165.849" r="20"/>
		</g>
	</g>
	<path id="XMLID_102_" style="fill:#2B7B57;" d="M237.837,305.932c-2.807,0-5.607,0.218-8.379,0.653
		c-10.9-10.023-24.644-16.5-39.245-18.563c-3.336-0.472-6.716-0.714-10.121-0.714v0.003c-3.403,0-6.783,0.24-10.121,0.712
		c-14.599,2.063-28.343,8.54-39.242,18.563c-2.77-0.435-5.572-0.653-8.379-0.653c-22.147,0-41.236,13.337-49.658,32.402
		c-4.544,10.286,2.979,21.853,14.224,21.853h93.177h93.179c11.245,0,18.768-11.566,14.224-21.853
		C279.073,319.269,259.984,305.932,237.837,305.932z"/>
</g>
<g>
</g>
<g>
</g>
<g>
</g>
<g>
</g>
<g>
</g>
<g>
</g>
<g>
</g>
<g>
</g>
<g>
</g>
<g>
</g>
<g>
</g>
<g>
</g>
<g>
</g>
<g>
</g>
<g>
</g>
</svg>
